<svg xmlns="http://www.w3.org/2000/svg" width="46" height="46" viewBox="0 0 48 48">
  <g>
    <path fill="#4285F4" d="M43.611 20.083H42V20H24v8h11.303C34.728 32.091 29.728 35 24 35c-6.627 0-12-5.373-12-12s5.373-12 12-12c2.761 0 5.287.99 7.274 2.617l6.849-6.849C34.346 5.14 29.396 3 24 3 12.954 3 4 11.954 4 23s8.954 20 20 20c11.046 0 19.87-7.954 19.87-20 0-1.341-.138-2.359-.259-3.333z"/>
    <path fill="#34A853" d="M6.306 14.691l6.571 4.819C14.655 16.12 18.961 13 24 13c2.761 0 5.287.99 7.274 2.617l6.849-6.849C34.346 5.14 29.396 3 24 3c-6.627 0-12 5.373-12 12 0 2.042.516 3.97 1.416 5.691z"/>
    <path fill="#FBBC05" d="M24 44c5.356 0 10.243-1.797 13.993-4.889l-6.481-5.303C29.726 35.001 27.037 36 24 36c-5.709 0-10.572-3.872-12.303-9.093l-6.535 5.034C7.743 39.625 15.308 44 24 44z"/>
    <path fill="#EA4335" d="M43.611 20.083H42V20H24v8h11.303c-1.635 4.091-6.635 7-11.303 7-2.761 0-5.287-.99-7.274-2.617l-6.849 6.849C13.654 42.86 18.604 45 24 45c8.692 0 16.257-4.375 19.838-11.059l-6.535-5.034C34.572 40.128 29.709 44 24 44z"/>
  </g>
</svg>
